<?xml version="1.0" standalone="no"?>
<!DOCTYPE svg PUBLIC "-//W3C//DTD SVG 20010904//EN"
 "http://www.w3.org/TR/2001/REC-SVG-20010904/DTD/svg10.dtd">
<svg version="1.0" xmlns="http://www.w3.org/2000/svg"
 width="256.000000pt" height="256.000000pt" viewBox="0 0 256.000000 256.000000"
 preserveAspectRatio="xMidYMid meet">
<metadata>
Created by potrace 1.11, written by Peter Selinger 2001-2013
</metadata>
<g transform="translate(0.000000,256.000000) scale(0.100000,-0.100000)"
fill="#000000" stroke="none">
<path d="M234 2421 c-49 -22 -99 -81 -111 -130 -5 -20 -8 -481 -8 -1026 1
-942 2 -992 19 -1025 22 -41 55 -74 99 -97 29 -16 112 -17 1026 -17 718 -1
1007 2 1040 10 55 14 114 74 130 130 14 48 13 1993 0 2040 -11 39 -68 100
-111 119 -28 12 -193 14 -1038 14 -958 1 -1007 0 -1046 -18z"/>
</g>
</svg>
